<mxfile host="app.diagrams.net" modified="2024-04-04T15:08:06.180Z" agent="Mozilla/5.0 (Windows NT 10.0; Win64; x64) AppleWebKit/537.36 (KHTML, like Gecko) Chrome/123.0.0.0 Safari/537.36 Edg/123.0.0.0" etag="6Nt3qSHKrIm5t2THntQ1" version="24.2.1" type="github">
  <diagram name="Pagina-1" id="I6jHvoQe_9_PUl_e0H-W">
    <mxGraphModel dx="1434" dy="796" grid="1" gridSize="10" guides="1" tooltips="1" connect="1" arrows="1" fold="1" page="1" pageScale="1" pageWidth="827" pageHeight="1169" math="0" shadow="0">
      <root>
        <mxCell id="0" />
        <mxCell id="1" parent="0" />
        <mxCell id="iljc-1RDCAFSpBHMdyOR-26" value="" style="rounded=0;whiteSpace=wrap;html=1;fillColor=none;" parent="1" vertex="1">
          <mxGeometry x="337.5" y="30" width="265" height="325" as="geometry" />
        </mxCell>
        <mxCell id="iljc-1RDCAFSpBHMdyOR-24" value="&lt;p style=&quot;line-height: 100%;&quot;&gt;Messagistica&lt;/p&gt;" style="rounded=0;whiteSpace=wrap;html=1;fillColor=none;strokeWidth=0;strokeColor=none;" parent="1" vertex="1">
          <mxGeometry x="385" y="30" width="175" height="25" as="geometry" />
        </mxCell>
        <mxCell id="iljc-1RDCAFSpBHMdyOR-1" value="Giocatore" style="shape=umlActor;verticalLabelPosition=bottom;verticalAlign=top;html=1;outlineConnect=0;" parent="1" vertex="1">
          <mxGeometry x="80" y="45" width="30" height="60" as="geometry" />
        </mxCell>
        <mxCell id="iljc-1RDCAFSpBHMdyOR-2" value="Gestore sede" style="shape=umlActor;verticalLabelPosition=bottom;verticalAlign=top;html=1;outlineConnect=0;" parent="1" vertex="1">
          <mxGeometry x="90" y="135" width="30" height="60" as="geometry" />
        </mxCell>
        <mxCell id="iljc-1RDCAFSpBHMdyOR-3" value="Allenatore" style="shape=umlActor;verticalLabelPosition=bottom;verticalAlign=top;html=1;outlineConnect=0;" parent="1" vertex="1">
          <mxGeometry x="80" y="232.5" width="30" height="60" as="geometry" />
        </mxCell>
        <mxCell id="iljc-1RDCAFSpBHMdyOR-4" value="DBMS" style="shape=umlActor;verticalLabelPosition=bottom;verticalAlign=top;html=1;outlineConnect=0;" parent="1" vertex="1">
          <mxGeometry x="740" y="105" width="30" height="60" as="geometry" />
        </mxCell>
        <mxCell id="iljc-1RDCAFSpBHMdyOR-6" value="Creazione gruppo" style="ellipse;whiteSpace=wrap;html=1;" parent="1" vertex="1">
          <mxGeometry x="412.5" y="165" width="120" height="80" as="geometry" />
        </mxCell>
        <mxCell id="iljc-1RDCAFSpBHMdyOR-12" value="" style="endArrow=none;html=1;rounded=0;exitX=1;exitY=0.5;exitDx=0;exitDy=0;" parent="1" source="iljc-1RDCAFSpBHMdyOR-6" target="iljc-1RDCAFSpBHMdyOR-4" edge="1">
          <mxGeometry width="50" height="50" relative="1" as="geometry">
            <mxPoint x="450" y="325" as="sourcePoint" />
            <mxPoint x="500" y="275" as="targetPoint" />
          </mxGeometry>
        </mxCell>
        <mxCell id="iljc-1RDCAFSpBHMdyOR-13" value="Scambio messaggi" style="ellipse;whiteSpace=wrap;html=1;" parent="1" vertex="1">
          <mxGeometry x="410" y="70" width="120" height="80" as="geometry" />
        </mxCell>
        <mxCell id="iljc-1RDCAFSpBHMdyOR-17" value="" style="endArrow=none;html=1;rounded=0;exitX=1;exitY=0.5;exitDx=0;exitDy=0;" parent="1" source="iljc-1RDCAFSpBHMdyOR-13" target="iljc-1RDCAFSpBHMdyOR-4" edge="1">
          <mxGeometry width="50" height="50" relative="1" as="geometry">
            <mxPoint x="540" y="145" as="sourcePoint" />
            <mxPoint x="750" y="145" as="targetPoint" />
          </mxGeometry>
        </mxCell>
        <mxCell id="iljc-1RDCAFSpBHMdyOR-18" value="Utente" style="shape=umlActor;verticalLabelPosition=bottom;verticalAlign=top;html=1;outlineConnect=0;" parent="1" vertex="1">
          <mxGeometry x="190" y="135" width="30" height="60" as="geometry" />
        </mxCell>
        <mxCell id="iljc-1RDCAFSpBHMdyOR-19" value="" style="endArrow=none;html=1;rounded=0;" parent="1" source="iljc-1RDCAFSpBHMdyOR-18" target="iljc-1RDCAFSpBHMdyOR-1" edge="1">
          <mxGeometry width="50" height="50" relative="1" as="geometry">
            <mxPoint x="390" y="255" as="sourcePoint" />
            <mxPoint x="440" y="205" as="targetPoint" />
          </mxGeometry>
        </mxCell>
        <mxCell id="iljc-1RDCAFSpBHMdyOR-20" value="" style="endArrow=none;html=1;rounded=0;" parent="1" source="iljc-1RDCAFSpBHMdyOR-18" target="iljc-1RDCAFSpBHMdyOR-2" edge="1">
          <mxGeometry width="50" height="50" relative="1" as="geometry">
            <mxPoint x="200" y="241" as="sourcePoint" />
            <mxPoint x="120" y="175" as="targetPoint" />
          </mxGeometry>
        </mxCell>
        <mxCell id="iljc-1RDCAFSpBHMdyOR-21" value="" style="endArrow=none;html=1;rounded=0;" parent="1" source="iljc-1RDCAFSpBHMdyOR-18" target="iljc-1RDCAFSpBHMdyOR-3" edge="1">
          <mxGeometry width="50" height="50" relative="1" as="geometry">
            <mxPoint x="200" y="265" as="sourcePoint" />
            <mxPoint x="120" y="265" as="targetPoint" />
          </mxGeometry>
        </mxCell>
        <mxCell id="iljc-1RDCAFSpBHMdyOR-23" value="" style="endArrow=none;html=1;rounded=0;entryX=0;entryY=0.5;entryDx=0;entryDy=0;" parent="1" source="iljc-1RDCAFSpBHMdyOR-18" target="iljc-1RDCAFSpBHMdyOR-13" edge="1">
          <mxGeometry width="50" height="50" relative="1" as="geometry">
            <mxPoint x="230" y="173" as="sourcePoint" />
            <mxPoint x="420" y="145" as="targetPoint" />
          </mxGeometry>
        </mxCell>
        <mxCell id="iljc-1RDCAFSpBHMdyOR-30" value="" style="rounded=0;whiteSpace=wrap;html=1;fillColor=none;" parent="1" vertex="1">
          <mxGeometry x="329" y="390" width="265" height="290" as="geometry" />
        </mxCell>
        <mxCell id="iljc-1RDCAFSpBHMdyOR-31" value="&lt;p style=&quot;line-height: 100%;&quot;&gt;Notifiche&lt;/p&gt;" style="rounded=0;whiteSpace=wrap;html=1;fillColor=none;strokeWidth=0;strokeColor=none;" parent="1" vertex="1">
          <mxGeometry x="374" y="390" width="175" height="25" as="geometry" />
        </mxCell>
        <mxCell id="iljc-1RDCAFSpBHMdyOR-35" value="DBMS" style="shape=umlActor;verticalLabelPosition=bottom;verticalAlign=top;html=1;outlineConnect=0;" parent="1" vertex="1">
          <mxGeometry x="700" y="450" width="30" height="60" as="geometry" />
        </mxCell>
        <mxCell id="iljc-1RDCAFSpBHMdyOR-36" value="Invio notifica generico" style="ellipse;whiteSpace=wrap;html=1;" parent="1" vertex="1">
          <mxGeometry x="401.5" y="440" width="120" height="80" as="geometry" />
        </mxCell>
        <mxCell id="iljc-1RDCAFSpBHMdyOR-37" value="" style="endArrow=none;html=1;rounded=0;exitX=1;exitY=0.5;exitDx=0;exitDy=0;" parent="1" source="iljc-1RDCAFSpBHMdyOR-36" target="iljc-1RDCAFSpBHMdyOR-35" edge="1">
          <mxGeometry width="50" height="50" relative="1" as="geometry">
            <mxPoint x="439" y="685" as="sourcePoint" />
            <mxPoint x="489" y="635" as="targetPoint" />
          </mxGeometry>
        </mxCell>
        <mxCell id="iljc-1RDCAFSpBHMdyOR-40" value="Tempo&lt;div&gt;&lt;br&gt;&lt;/div&gt;" style="shape=umlActor;verticalLabelPosition=bottom;verticalAlign=top;html=1;outlineConnect=0;" parent="1" vertex="1">
          <mxGeometry x="200" y="450" width="30" height="60" as="geometry" />
        </mxCell>
        <mxCell id="iljc-1RDCAFSpBHMdyOR-44" value="" style="endArrow=none;html=1;rounded=0;entryX=0;entryY=0.5;entryDx=0;entryDy=0;" parent="1" source="iljc-1RDCAFSpBHMdyOR-40" target="iljc-1RDCAFSpBHMdyOR-36" edge="1">
          <mxGeometry width="50" height="50" relative="1" as="geometry">
            <mxPoint x="379" y="615" as="sourcePoint" />
            <mxPoint x="429" y="565" as="targetPoint" />
          </mxGeometry>
        </mxCell>
        <mxCell id="ZC3kgRrbieI5f3ZZangW-2" value="Promemoria inattivitÃ  utenti" style="ellipse;whiteSpace=wrap;html=1;" vertex="1" parent="1">
          <mxGeometry x="401.5" y="560" width="120" height="80" as="geometry" />
        </mxCell>
        <mxCell id="ZC3kgRrbieI5f3ZZangW-3" value="" style="endArrow=none;html=1;rounded=0;exitX=0;exitY=0.5;exitDx=0;exitDy=0;" edge="1" parent="1" source="ZC3kgRrbieI5f3ZZangW-2">
          <mxGeometry width="50" height="50" relative="1" as="geometry">
            <mxPoint x="530" y="370" as="sourcePoint" />
            <mxPoint x="230" y="480" as="targetPoint" />
          </mxGeometry>
        </mxCell>
        <mxCell id="ZC3kgRrbieI5f3ZZangW-4" value="" style="endArrow=none;html=1;rounded=0;exitX=1;exitY=0.5;exitDx=0;exitDy=0;" edge="1" parent="1" source="ZC3kgRrbieI5f3ZZangW-2">
          <mxGeometry width="50" height="50" relative="1" as="geometry">
            <mxPoint x="792" y="645" as="sourcePoint" />
            <mxPoint x="700" y="480" as="targetPoint" />
          </mxGeometry>
        </mxCell>
      </root>
    </mxGraphModel>
  </diagram>
</mxfile>
